<mxfile host="app.diagrams.net" modified="2021-08-11T00:42:35.827Z" agent="5.0 (Macintosh; Intel Mac OS X 10_15_7) AppleWebKit/605.1.15 (KHTML, like Gecko) Version/14.1.2 Safari/605.1.15" etag="bf4lPr7p8dcAR2YOcX0Z" version="14.9.5" type="github">
  <diagram id="7rizAYMq0ALZ2gmKse8H" name="Page-1">
    <mxGraphModel dx="1988" dy="770" grid="1" gridSize="10" guides="1" tooltips="1" connect="1" arrows="1" fold="1" page="1" pageScale="1" pageWidth="850" pageHeight="1100" math="0" shadow="0">
      <root>
        <mxCell id="0" />
        <mxCell id="1" parent="0" />
        <mxCell id="NO-8LHkDTcuibnYdFdSq-4" style="edgeStyle=orthogonalEdgeStyle;rounded=0;orthogonalLoop=1;jettySize=auto;html=1;entryX=0.5;entryY=1;entryDx=0;entryDy=0;entryPerimeter=0;" parent="1" source="NO-8LHkDTcuibnYdFdSq-1" target="NO-8LHkDTcuibnYdFdSq-3" edge="1">
          <mxGeometry relative="1" as="geometry" />
        </mxCell>
        <mxCell id="NO-8LHkDTcuibnYdFdSq-6" style="edgeStyle=orthogonalEdgeStyle;rounded=0;orthogonalLoop=1;jettySize=auto;html=1;" parent="1" source="NO-8LHkDTcuibnYdFdSq-1" target="NO-8LHkDTcuibnYdFdSq-5" edge="1">
          <mxGeometry relative="1" as="geometry" />
        </mxCell>
        <mxCell id="NO-8LHkDTcuibnYdFdSq-1" value="UI" style="rounded=0;whiteSpace=wrap;html=1;" parent="1" vertex="1">
          <mxGeometry x="100" y="540" width="120" height="60" as="geometry" />
        </mxCell>
        <mxCell id="NO-8LHkDTcuibnYdFdSq-3" value="" style="verticalLabelPosition=bottom;html=1;verticalAlign=top;align=center;strokeColor=none;fillColor=#00BEF2;shape=mxgraph.azure.github_code;pointerEvents=1;" parent="1" vertex="1">
          <mxGeometry x="135" y="370" width="50" height="50" as="geometry" />
        </mxCell>
        <mxCell id="NO-8LHkDTcuibnYdFdSq-5" value="DMS Spark" style="rounded=1;whiteSpace=wrap;html=1;" parent="1" vertex="1">
          <mxGeometry x="515" y="535" width="150" height="70" as="geometry" />
        </mxCell>
        <mxCell id="NO-8LHkDTcuibnYdFdSq-7" value="For each driver we set jdbc driver path on /root/jars/&amp;lt;jar_file&amp;gt;&lt;br&gt;https://bitbucket.org/fireman10/ui_config/src/master/dataSources.json" style="text;html=1;strokeColor=none;fillColor=none;align=center;verticalAlign=middle;whiteSpace=wrap;rounded=0;" parent="1" vertex="1">
          <mxGeometry x="65" y="310" width="190" height="50" as="geometry" />
        </mxCell>
        <mxCell id="NO-8LHkDTcuibnYdFdSq-12" style="edgeStyle=orthogonalEdgeStyle;rounded=0;orthogonalLoop=1;jettySize=auto;html=1;" parent="1" source="NO-8LHkDTcuibnYdFdSq-9" target="NO-8LHkDTcuibnYdFdSq-10" edge="1">
          <mxGeometry relative="1" as="geometry" />
        </mxCell>
        <mxCell id="NO-8LHkDTcuibnYdFdSq-9" value="S3 bucket(dataqio.s3.amazonaws.com/jars/)&lt;br&gt;&amp;nbsp;where we store all the jar files" style="outlineConnect=0;fontColor=#232F3E;gradientColor=none;fillColor=#277116;strokeColor=none;dashed=0;verticalLabelPosition=bottom;verticalAlign=top;align=center;html=1;fontSize=12;fontStyle=0;aspect=fixed;pointerEvents=1;shape=mxgraph.aws4.bucket_with_objects;" parent="1" vertex="1">
          <mxGeometry x="590" y="61" width="75" height="78" as="geometry" />
        </mxCell>
        <mxCell id="NO-8LHkDTcuibnYdFdSq-13" style="edgeStyle=orthogonalEdgeStyle;rounded=0;orthogonalLoop=1;jettySize=auto;html=1;" parent="1" source="NO-8LHkDTcuibnYdFdSq-10" target="NO-8LHkDTcuibnYdFdSq-11" edge="1">
          <mxGeometry relative="1" as="geometry" />
        </mxCell>
        <mxCell id="NO-8LHkDTcuibnYdFdSq-10" value="Jenkins job" style="shape=image;html=1;verticalAlign=top;verticalLabelPosition=bottom;labelBackgroundColor=#ffffff;imageAspect=0;aspect=fixed;image=https://cdn4.iconfinder.com/data/icons/logos-brands-5/24/jenkins-128.png" parent="1" vertex="1">
          <mxGeometry x="365" y="70" width="60" height="60" as="geometry" />
        </mxCell>
        <mxCell id="NO-8LHkDTcuibnYdFdSq-15" style="edgeStyle=orthogonalEdgeStyle;rounded=0;orthogonalLoop=1;jettySize=auto;html=1;" parent="1" source="NO-8LHkDTcuibnYdFdSq-11" target="NO-8LHkDTcuibnYdFdSq-14" edge="1">
          <mxGeometry relative="1" as="geometry" />
        </mxCell>
        <mxCell id="NO-8LHkDTcuibnYdFdSq-11" value="Creates docker container &lt;br&gt;:&amp;nbsp;dataquser/sjars" style="shape=image;html=1;verticalAlign=top;verticalLabelPosition=bottom;labelBackgroundColor=#ffffff;imageAspect=0;aspect=fixed;image=https://cdn4.iconfinder.com/data/icons/logos-and-brands/512/97_Docker_logo_logos-128.png" parent="1" vertex="1">
          <mxGeometry x="370" y="200" width="50" height="50" as="geometry" />
        </mxCell>
        <mxCell id="NO-8LHkDTcuibnYdFdSq-14" value="populates jars in location : /root/jars/&amp;lt;jar_files&amp;gt;" style="shadow=0;dashed=0;html=1;strokeColor=none;fillColor=#4495D1;labelPosition=center;verticalLabelPosition=bottom;verticalAlign=top;align=center;outlineConnect=0;shape=mxgraph.veeam.2d.file_system_browser;" parent="1" vertex="1">
          <mxGeometry x="650" y="205.2" width="44.8" height="44.8" as="geometry" />
        </mxCell>
      </root>
    </mxGraphModel>
  </diagram>
</mxfile>
